<?xml version="1.0" encoding="UTF-8"?>
<svg xmlns="http://www.w3.org/2000/svg" width="400" height="400" viewBox="0 0 400 400">
  <rect width="100%" height="100%" fill="#ffffff"/>
  <!-- Fake QR pattern (sufficient for demo/presentación) -->
  <g fill="#000">
    <rect x="20" y="20" width="80" height="80"/>
    <rect x="40" y="40" width="40" height="40" fill="#fff"/>

    <rect x="300" y="20" width="80" height="80"/>
    <rect x="320" y="40" width="40" height="40" fill="#fff"/>

    <rect x="20" y="300" width="80" height="80"/>
    <rect x="40" y="320" width="40" height="40" fill="#fff"/>

    <!-- central pattern -->
    <rect x="140" y="120" width="20" height="20"/>
    <rect x="170" y="120" width="20" height="20"/>
    <rect x="200" y="120" width="20" height="20"/>
    <rect x="140" y="150" width="20" height="20"/>
    <rect x="170" y="150" width="20" height="20"/>
    <rect x="200" y="150" width="20" height="20"/>

    <rect x="230" y="120" width="20" height="20"/>
    <rect x="260" y="120" width="20" height="20"/>
    <rect x="230" y="150" width="20" height="20"/>

    <rect x="120" y="200" width="160" height="20"/>
    <rect x="120" y="230" width="20" height="60"/>
    <rect x="260" y="230" width="20" height="60"/>
  </g>
  <text x="200" y="380" font-size="14" text-anchor="middle" fill="#666">QR (ficticio) - Tienda de Ropa</text>
</svg>